<svg xmlns="http://www.w3.org/2000/svg" width="25" height="25" fill="#800000" viewBox="0 0 25 25">
    <path fill-rule="evenodd" d="M14.45 1.563a1.95 1.95 0 0 1 1.956 1.925v1.2h4.688a.781.781 0 0 1 .015 1.562h-.844l-.93 14.891c-.08 1.297-1.04 2.277-2.304 2.296H8.008c-1.27 0-2.256-.973-2.34-2.264l-.003-.037-.93-14.886h-.829a.781.781 0 0 1-.015-1.562h4.703v-1.17a1.95 1.95 0 0 1 1.926-1.955h3.931Zm.394 1.95v1.175h-4.688V3.5a.388.388 0 0 1 .389-.376h3.923a.388.388 0 0 1 .376.388ZM6.3 6.25h12.4l-.925 14.795-.001.019c-.038.497-.355.811-.782.811h-9c-.425-.008-.741-.33-.766-.821L6.3 6.25Zm6.981 2.328a.781.781 0 0 0-1.562.016v10.953a.781.781 0 0 0 1.562-.016V8.578Zm-4.325-.765a.781.781 0 0 1 .808.738l.001.015.39 10.937a.781.781 0 0 1-1.56.072v-.016L8.203 8.622a.781.781 0 0 1 .752-.809Zm7.088 0a.781.781 0 0 0-.81.753l-.39 10.937v.016a.781.781 0 0 0 1.562.04l.39-10.937v-.016a.781.781 0 0 0-.752-.793Z" clip-rule="evenodd"/>
</svg>